<svg xmlns="http://www.w3.org/2000/svg" width="30" height="30" viewBox="0 0 30 30">
  <defs>
    <style>
      .cls-1 {
        fill: #fff;
        fill-rule: evenodd;
      }
    </style>
  </defs>
  <path class="cls-1" d="M716,25a15,15,0,1,1-15,15A15,15,0,0,1,716,25Zm0,2a13,13,0,1,1-13,13A13,13,0,0,1,716,27Zm5.994,6h-7.779a1,1,0,0,0-1,1v2.348h4.575a1.92,1.92,0,0,1,1.923,1.913v4.478h2.286a1,1,0,0,0,1.006-1V34A1,1,0,0,0,721.994,33Zm-4.209,4.261h-7.78a1,1,0,0,0-1,1V46a1,1,0,0,0,1,1h7.78a1,1,0,0,0,1-1V38.261A1,1,0,0,0,717.785,37.261Z" transform="translate(-701 -25)"/>
</svg>
