<svg xmlns="http://www.w3.org/2000/svg" width="16" height="12" viewBox="0 0 16 12">
  <defs>
    <style>
      .cls-1 {
        fill: #fff;
        fill-rule: evenodd;
      }
    </style>
  </defs>
  <path id="Forma_1" data-name="Forma 1" class="cls-1" d="M142.442,1003.14a5.562,5.562,0,0,0,2.29-1.58,3.385,3.385,0,0,0,.839-2.195,3.344,3.344,0,0,0-.839-2.19,5.655,5.655,0,0,0-2.29-1.59,8.822,8.822,0,0,0-6.313,0,5.661,5.661,0,0,0-2.29,1.59,3.349,3.349,0,0,0-.839,2.19,3.224,3.224,0,0,0,.634,1.9,5.118,5.118,0,0,0,1.741,1.51c-0.059.14-.12,0.26-0.183,0.38a2.661,2.661,0,0,1-.223.33q-0.129.15-.2,0.24a2.364,2.364,0,0,1-.232.25c-0.107.11-.176,0.18-0.205,0.22,0-.01-0.012,0-0.036.04a0.131,0.131,0,0,1-.04.04,0.113,0.113,0,0,0-.036.04,0.443,0.443,0,0,0-.031.05l-0.023.04a0.168,0.168,0,0,0-.018.05,0.4,0.4,0,0,0,0,.06,0.147,0.147,0,0,0,.009.05,0.254,0.254,0,0,0,.1.18,0.264,0.264,0,0,0,.183.07h0.026c0.3-.04.554-0.09,0.768-0.14a7.52,7.52,0,0,0,2.482-1.09,9.5,9.5,0,0,0,1.572.14A8.362,8.362,0,0,0,142.442,1003.14Zm5.924,0.32a3.2,3.2,0,0,0-.036-3.874,5.222,5.222,0,0,0-1.821-1.517,4.211,4.211,0,0,1-.393,3.461,5.919,5.919,0,0,1-1.715,1.81,8.365,8.365,0,0,1-2.357,1.1,10.057,10.057,0,0,1-2.759.38c-0.178,0-.44-0.01-0.785-0.04a7.769,7.769,0,0,0,4.214,1.13,9.5,9.5,0,0,0,1.572-.14,7.511,7.511,0,0,0,2.482,1.09,5.833,5.833,0,0,0,.767.14,0.242,0.242,0,0,0,.2-0.06,0.3,0.3,0,0,0,.116-0.19c0-.03,0-0.05.009-0.05s0.007-.02,0-0.06-0.017-.05-0.017-0.05l-0.022-.04c-0.007-.01-0.017-0.03-0.032-0.05a0.422,0.422,0,0,0-.036-0.04c-0.008-.01-0.022-0.02-0.04-0.04a0.175,0.175,0,0,0-.035-0.04c-0.03-.03-0.1-0.11-0.206-0.21s-0.184-.2-0.232-0.26-0.114-.14-0.2-0.24a2.777,2.777,0,0,1-.223-0.33,4,4,0,0,1-.183-0.38A5.1,5.1,0,0,0,148.366,1003.46Z" transform="translate(-133 -995)"/>
</svg>
