<svg xmlns="http://www.w3.org/2000/svg" width="21" height="21" viewBox="0 0 21 21">
  <defs>
    <style>
      .cls-1 {
        fill: #fff;
        fill-rule: evenodd;
      }
    </style>
  </defs>
  <path id="Rectangle_1_copy" data-name="Rectangle 1 copy" class="cls-1" d="M116.924,755.63l-2.889,2.312a0.261,0.261,0,0,1-.263.039,0.2,0.2,0,0,1-.143-0.189V756H107v6.629h1.806a0.192,0.192,0,0,1,.19.143,0.269,0.269,0,0,1-.033.263l-2.286,2.889a0.193,0.193,0,0,1-.15.075,0.2,0.2,0,0,1-.157-0.075l-2.312-2.889a0.261,0.261,0,0,1-.039-0.263,0.2,0.2,0,0,1,.189-0.143H106V756H99v1.792a0.2,0.2,0,0,1-.127.189,0.212,0.212,0,0,1-.234-0.039l-2.567-2.312A0.213,0.213,0,0,1,96,755.473a0.2,0.2,0,0,1,.067-0.15l2.567-2.286A0.218,0.218,0,0,1,98.869,753a0.189,0.189,0,0,1,.127.189V755h7v-7h-1.792a0.2,0.2,0,0,1-.189-0.127,0.212,0.212,0,0,1,.039-0.234l2.312-2.567a0.211,0.211,0,0,1,.157-0.067,0.2,0.2,0,0,1,.15.067l2.286,2.567a0.218,0.218,0,0,1,.033.234,0.189,0.189,0,0,1-.19.127H107v7h6.629v-1.807a0.191,0.191,0,0,1,.143-0.189,0.269,0.269,0,0,1,.263.033l2.889,2.286a0.193,0.193,0,0,1,.075.15A0.2,0.2,0,0,1,116.924,755.63Z" transform="translate(-96 -745)"/>
</svg>
