<svg xmlns="http://www.w3.org/2000/svg" width="19" height="20" viewBox="0 0 19 20">
  <defs>
    <style>
      .cls-1 {
        fill: #fff;
        fill-rule: evenodd;
      }
    </style>
  </defs>
  <path class="cls-1" d="M765.1,758.993a0.59,0.59,0,0,0-.819.115A5.109,5.109,0,0,1,760.2,761.1h-1.612a0.573,0.573,0,1,0,0,1.146H760.2a6.317,6.317,0,0,0,2.843-.666,6.24,6.24,0,0,0,2.167-1.782A0.567,0.567,0,0,0,765.1,758.993Zm1.651-8.051a0.6,0.6,0,0,0,.824-0.1,5.108,5.108,0,0,1,4.031-1.934H775l-1.816,1.777a0.562,0.562,0,0,0,0,.81,0.593,0.593,0,0,0,.412.17,0.573,0.573,0,0,0,.411-0.17l2.818-2.757a0.563,0.563,0,0,0,0-.81l-2.818-2.757a0.591,0.591,0,0,0-.827,0,0.562,0.562,0,0,0,0,.81L775,747.756h-3.4a6.283,6.283,0,0,0-4.958,2.38A0.574,0.574,0,0,0,766.746,750.942Zm7.269,7.568a0.592,0.592,0,0,0-.828,0,0.562,0.562,0,0,0,0,.81L775,761.1h-3.4a5.054,5.054,0,0,1-5.1-4.993V753.9a6.212,6.212,0,0,0-6.271-6.139h-1.617a0.573,0.573,0,1,0,0,1.146h1.617a5.053,5.053,0,0,1,5.1,4.993V756.1a6.213,6.213,0,0,0,6.272,6.139H775l-1.816,1.777a0.562,0.562,0,0,0,0,.81,0.593,0.593,0,0,0,.412.17,0.573,0.573,0,0,0,.411-0.17l2.818-2.757a0.563,0.563,0,0,0,0-.81Z" transform="translate(-758 -745)"/>
</svg>
