<svg xmlns="http://www.w3.org/2000/svg" width="17" height="20" viewBox="0 0 17 20">
  <defs>
    <style>
      .cls-1 {
        fill: #fff;
        fill-rule: evenodd;
      }
    </style>
  </defs>
  <path class="cls-1" d="M1080.54,747.884h-5.28v-0.948a0.934,0.934,0,0,0-.92-0.936h-3.68a0.934,0.934,0,0,0-.92.936v0.948h-5.28a0.471,0.471,0,0,0,0,.942h0.86l0.58,15.484a1.743,1.743,0,0,0,1.73,1.69h9.74a1.743,1.743,0,0,0,1.73-1.69l0.58-15.484h0.86A0.471,0.471,0,0,0,1080.54,747.884Zm-9.87-.943h3.66v0.943h-3.66v-0.943Zm7.5,17.333a0.8,0.8,0,0,1-.8.785h-9.74a0.8,0.8,0,0,1-.8-0.785l-0.58-15.448h12.5Zm-8.49-11.182a0.462,0.462,0,0,0-.46-0.461h-0.01a0.465,0.465,0,0,0-.45.48l0.14,7.681a0.478,0.478,0,0,0,.47.461h0.01a0.471,0.471,0,0,0,.45-0.479Zm2.82-.461a0.462,0.462,0,0,0-.46.47v7.682a0.46,0.46,0,1,0,.92,0V753.1A0.462,0.462,0,0,0,1072.5,752.631Zm3.29,0a0.459,0.459,0,0,0-.47.461l-0.15,7.682a0.471,0.471,0,0,0,.45.479h0.01a0.478,0.478,0,0,0,.47-0.461l0.14-7.681A0.465,0.465,0,0,0,1075.79,752.631Z" transform="translate(-1064 -746)"/>
</svg>
