<svg xmlns="http://www.w3.org/2000/svg" width="19" height="21" viewBox="0 0 19 21">
  <defs>
    <style>
      .cls-1 {
        fill: #fff;
        fill-rule: evenodd;
      }
    </style>
  </defs>
  <path id="Forma_1" data-name="Forma 1" class="cls-1" d="M471.009,758.162a0.533,0.533,0,0,1,1.047-.2,8.515,8.515,0,1,0,8.366-10.11,7.9,7.9,0,0,0-1.415.12,7.817,7.817,0,0,0-.949.212l1.265,1.012a0.53,0.53,0,0,1,.09.747,0.521,0.521,0,0,1-.745.083l-2.071-1.654a0.536,0.536,0,0,1-.143-0.649l1.046-2.408a0.533,0.533,0,0,1,.7-0.272,0.526,0.526,0,0,1,.271.7l-0.6,1.39a8.1,8.1,0,0,1,.964-0.212,9.338,9.338,0,0,1,1.589-.136,9.606,9.606,0,1,1-9.413,11.372h0Z" transform="translate(-471 -745)"/>
</svg>
